<svg xmlns="http://www.w3.org/2000/svg" width="16" height="16" viewBox="0 0 16 16" shape-rendering="crispEdges">
  <title>Fireball</title>
  <desc>16x16 fireball sprite for Mario's fire power-up, drawn on the same pixel grid and palette as the other object sprites.</desc>
  <g fill="#000000" id="outline">
    <rect x="5" y="2" width="6" height="1"/>
    <rect x="4" y="3" width="1" height="1"/>
    <rect x="11" y="3" width="1" height="1"/>
    <rect x="3" y="4" width="1" height="1"/>
    <rect x="12" y="4" width="1" height="1"/>
    <rect x="2" y="5" width="1" height="1"/>
    <rect x="13" y="5" width="1" height="1"/>
    <rect x="2" y="6" width="1" height="1"/>
    <rect x="13" y="6" width="1" height="1"/>
    <rect x="2" y="7" width="1" height="1"/>
    <rect x="13" y="7" width="1" height="1"/>
    <rect x="2" y="8" width="1" height="1"/>
    <rect x="13" y="8" width="1" height="1"/>
    <rect x="2" y="9" width="1" height="1"/>
    <rect x="13" y="9" width="1" height="1"/>
    <rect x="2" y="10" width="1" height="1"/>
    <rect x="13" y="10" width="1" height="1"/>
    <rect x="3" y="11" width="1" height="1"/>
    <rect x="12" y="11" width="1" height="1"/>
    <rect x="4" y="12" width="1" height="1"/>
    <rect x="11" y="12" width="1" height="1"/>
    <rect x="5" y="13" width="6" height="1"/>
  </g>
  <g fill="#fcfcfc" id="highlight">
    <rect x="5" y="3" width="3" height="1"/>
    <rect x="4" y="4" width="3" height="1"/>
    <rect x="3" y="5" width="3" height="1"/>
    <rect x="3" y="6" width="2" height="1"/>
    <rect x="3" y="7" width="1" height="1"/>
  </g>
  <g fill="#e69c21" id="body">
    <rect x="8" y="3" width="3" height="1"/>
    <rect x="7" y="4" width="5" height="1"/>
    <rect x="6" y="5" width="7" height="1"/>
    <rect x="5" y="6" width="8" height="1"/>
    <rect x="4" y="7" width="8" height="1"/>
    <rect x="3" y="8" width="8" height="1"/>
    <rect x="3" y="9" width="7" height="1"/>
    <rect x="3" y="10" width="6" height="1"/>
    <rect x="4" y="11" width="4" height="1"/>
    <rect x="5" y="12" width="2" height="1"/>
  </g>
  <g fill="#b53121" id="flame">
    <rect x="12" y="7" width="1" height="1"/>
    <rect x="11" y="8" width="2" height="1"/>
    <rect x="10" y="9" width="3" height="1"/>
    <rect x="9" y="10" width="4" height="1"/>
    <rect x="8" y="11" width="4" height="1"/>
    <rect x="7" y="12" width="4" height="1"/>
  </g>
</svg>
